<?xml version="1.0" standalone="no"?>
<!DOCTYPE svg PUBLIC "-//W3C//DTD SVG 1.1//EN" "http://www.w3.org/Graphics/SVG/1.1/DTD/svg11.dtd" >
<svg xmlns="http://www.w3.org/2000/svg">
<metadata>
This is a custom SVG webfont generated by Font Squirrel.
Copyright   : C 1999 Ray Larabie  rlarabiehotmailcom
</metadata>
<defs>
<font id="webfontjdbipmYi" horiz-adv-x="618" >
<font-face units-per-em="2048" ascent="1638" descent="-410" />
<missing-glyph horiz-adv-x="587" />
<glyph unicode=" "  horiz-adv-x="587" />
<glyph unicode="&#x09;" horiz-adv-x="587" />
<glyph unicode="&#xa0;" horiz-adv-x="587" />
<glyph unicode="!" horiz-adv-x="512" d="M375 842l-21 -160l-39 -322h-118l-39 322l-21 160v708h238v-708zM420 121q0 -66 -46 -116t-118 -50q-68 0 -116 49t-48 115q0 68 46 117t118 49q68 0 116 -48t48 -116z" />
<glyph unicode="&#x22;" horiz-adv-x="686" d="M647 1626l-59 -479h-150l-30 479h239zM289 1626l-60 -479h-147l-31 479h238z" />
<glyph unicode="#" horiz-adv-x="1335" d="M1264 240h-238v-240h-240v240h-237v-240h-238v240h-237v241h237v240h-237v242h237v239h238v-239h237v239h240v-239h238v-242h-238v-240h238v-241zM786 481v240h-237v-240h237z" />
<glyph unicode="$" horiz-adv-x="1177" d="M1087 424q0 -102 -61 -168q-66 -72 -178 -72h-207v-239h-119v239h-387v240h387v242h-209q-88 0 -149.5 47t-81.5 127q-6 31 -6 65v242q0 94 66.5 166.5t170.5 72.5h209v240h119v-240h356v-239h-356v-242h207q102 0 170.5 -69.5t68.5 -169.5v-242zM522 905v242h-209v-242 h209zM848 424v242h-207v-242h207z" />
<glyph unicode="%" horiz-adv-x="1376" d="M1335 610q0 -98 -65 -172q-72 -76 -176 -76q-100 0 -171 73t-71 171q0 100 68.5 174t173.5 74q100 0 170.5 -73t70.5 -171zM1176 1182l-750 -820h-223l749 820h224zM526 936q0 -98 -65 -170q-72 -76 -176 -76q-100 0 -172 72t-72 172q0 98 69.5 173t174.5 75 q100 0 170.5 -73t70.5 -173zM1094 690q-35 0 -57.5 -24.5t-22.5 -57.5t23.5 -57.5t56.5 -24.5q35 0 57.5 24.5t22.5 57.5t-23.5 57.5t-56.5 24.5zM285 1018q-35 0 -58.5 -24.5t-23.5 -57.5q0 -35 24.5 -58.5t57.5 -23.5q35 0 57.5 24.5t22.5 57.5t-23.5 57.5t-56.5 24.5z " />
<glyph unicode="&#x26;" horiz-adv-x="1419" d="M1370 829h-119v-589q0 -100 -64.5 -170t-174.5 -70h-713q-104 0 -172 69.5t-68 170.5v1071q0 104 62.5 171.5t177.5 67.5h594v-239h-594v-242h713v121h239v-121h119v-240zM1012 240v589h-713v-589h713z" />
<glyph unicode="'" horiz-adv-x="337" d="M338 1454q0 -117 -80 -192q-59 -55 -192 -111l-37 47q90 47 104 113q-12 -2 -16 -2q-80 0 -105 106q-6 18 -6 39q0 70 48 120t124 50q127 0 156 -119q6 -24 4 -51z" />
<glyph unicode="(" horiz-adv-x="466" d="M444 -342h-239q-63 193 -105 365q-72 311 -71 600q0 422 176 958h239q-178 -537 -178 -958q0 -289 74 -600q38 -172 104 -365z" />
<glyph unicode=")" horiz-adv-x="614" d="M428 1214q74 -309 74 -598q0 -424 -178 -958h-238q176 535 176 958q0 289 -72 598q-41 172 -104 367h238q65 -195 104 -367z" />
<glyph unicode="*" horiz-adv-x="677" d="M639 764l-139 -82l137 -82l-70 -125l-141 82v-160h-143v158l-136 -80l-71 125l139 82l-141 82l71 123l138 -80v166h143v-168l141 82z" />
<glyph unicode="+" horiz-adv-x="827" d="M776 707h-237v-242h-238v242h-238v239h238v242h238v-242h237v-239z" />
<glyph unicode="," horiz-adv-x="448" d="M389 115q0 -115 -80 -193q-59 -55 -192 -110l-37 47q88 47 104 112h-16q-82 0 -107 105q-4 20 -4 41q0 68 48.5 118t123.5 50q127 0 156 -119q4 -22 4 -51z" />
<glyph unicode="-" horiz-adv-x="827" d="M778 707h-715v239h715v-239z" />
<glyph unicode="." horiz-adv-x="438" d="M383 121q0 -66 -47 -116t-117 -50q-68 0 -116 49t-48 115q0 68 46 117t118 49q68 0 116 -48t48 -116z" />
<glyph unicode="/" horiz-adv-x="1019" d="M1020 1550l-778 -1550h-185l777 1550h186z" />
<glyph unicode="0" horiz-adv-x="1368" d="M1274 240q0 -240 -238 -240h-714q-190 0 -230 160q-8 37 -8 80v1071q0 94 67.5 166.5t170.5 72.5h714q100 0 169 -70.5t69 -168.5v-1071zM1036 240v1071h-714v-1071h714z" />
<glyph unicode="1" horiz-adv-x="856" d="M782 0h-714v240h237v1071h-237v239h475v-1310h239v-240z" />
<glyph unicode="2" horiz-adv-x="1370" d="M1274 0h-1190v707q0 100 64.5 169.5t173.5 69.5h714v365h-952v239h952q190 0 230 -170q8 -33 8 -69v-357q0 -100 -62 -172q-68 -76 -176 -75h-714v-467h952v-240z" />
<glyph unicode="3" horiz-adv-x="1374" d="M1282 240q0 -240 -238 -240h-952v240h952v467h-911v239h911v365h-952v239h952q100 0 169 -70.5t69 -168.5v-303q0 -127 -115 -191q115 -66 115 -172v-405z" />
<glyph unicode="4" horiz-adv-x="1452" d="M1395 481h-150v-481h-237v481h-953v1069h238v-829h715v829h237v-829h150v-240z" />
<glyph unicode="5" horiz-adv-x="1411" d="M1292 240q0 -106 -57 -170q-63 -70 -180 -70h-953v240h953v467h-953v843h1190v-239h-952v-365h715q96 0 166.5 -71.5t70.5 -167.5v-467z" />
<glyph unicode="6" horiz-adv-x="1411" d="M1292 240q0 -106 -57 -170q-63 -70 -180 -70h-715q-102 0 -170 68.5t-68 171.5v1071q0 96 65.5 167.5t172.5 71.5h891v-239h-891v-365h715q96 0 166.5 -71.5t70.5 -167.5v-467zM1055 240v467h-715v-467h715z" />
<glyph unicode="7" horiz-adv-x="1353" d="M1266 1311l-801 -1311h-287l819 1311h-921v239h1190v-239z" />
<glyph unicode="8" horiz-adv-x="1374" d="M1282 240q0 -240 -238 -240h-714q-193 0 -230 160q-8 37 -8 80v405q0 106 115 172q-115 63 -115 191v303q0 94 66.5 166.5t171.5 72.5h714q100 0 169 -70.5t69 -168.5v-303q0 -127 -115 -191q115 -66 115 -172v-405zM1044 946v365h-714v-365h714zM1044 240v467h-714v-467 h714z" />
<glyph unicode="9" horiz-adv-x="1363" d="M1276 240q0 -98 -64 -166q-68 -74 -174 -74h-952v240h952v467h-714q-96 0 -167 71.5t-71 167.5v365q0 106 60.5 172.5t177.5 66.5h714q102 0 170 -68.5t68 -170.5v-1071zM1038 946v365h-714v-365h714z" />
<glyph unicode=":" horiz-adv-x="434" d="M385 842q0 -66 -47 -116t-117 -50q-68 0 -116 49t-48 115q0 68 46.5 118t117.5 50q68 0 116 -49t48 -117zM385 121q0 -66 -47 -116t-117 -50q-68 0 -116 49t-48 115q0 68 46.5 117t117.5 49q68 0 116 -48t48 -116z" />
<glyph unicode=";" horiz-adv-x="436" d="M387 842q0 -66 -47 -116t-117 -50q-68 0 -116 49t-48 115q0 68 46.5 118t117.5 50q68 0 116 -49t48 -117zM389 115q0 -115 -82 -193q-59 -55 -192 -110l-37 47q90 47 104 112h-14q-82 0 -107 105q-4 20 -4 41q0 68 48.5 118t121.5 50q129 0 156 -119q6 -22 6 -51z" />
<glyph unicode="&#x3c;" horiz-adv-x="817" d="M741 477l-168 -170l-503 510l503 510l168 -170l-335 -340z" />
<glyph unicode="=" horiz-adv-x="860" d="M788 885h-714v241h714v-241zM788 485h-714v242h714v-242z" />
<glyph unicode="&#x3e;" horiz-adv-x="827" d="M743 817l-503 -510l-168 170l336 340l-336 340l168 170z" />
<glyph unicode="?" horiz-adv-x="1042" d="M983 1077q0 -100 -64.5 -174t-175.5 -74h-266v-409h-239v409q0 100 64.5 170t174.5 70h266v242h-684v239h684q190 0 232 -170q8 -33 8 -69v-234zM492 121q0 -66 -46.5 -116t-117.5 -50q-68 0 -116 49t-48 115q0 68 46 117t118 49q68 0 116 -48t48 -116z" />
<glyph unicode="@" horiz-adv-x="882" d="M768 219h-659v850h659v-606h-481v360h303v-196h-125v82h-53v-129h229v372h-408v-618h535v-115z" />
<glyph unicode="A" horiz-adv-x="1357" d="M1270 0h-238v707h-715v-707h-237v1311q0 100 64.5 169.5t172.5 69.5h715q86 0 162 -76.5t76 -162.5v-1311zM1032 946v365h-715v-365h715z" />
<glyph unicode="B" horiz-adv-x="1366" d="M1272 240q-4 -119 -47 -172q-55 -68 -191 -68h-952v1550h952q104 0 171 -68.5t67 -170.5v-334q0 -166 -122 -166h-3q98 -16 119 -104q6 -25 6 -62v-405zM1034 946v365h-712v-365h712zM1034 240v467h-712v-467h712z" />
<glyph unicode="C" horiz-adv-x="1331" d="M1227 0h-912q-193 0 -229 160q-8 37 -8 80v1071q0 94 66.5 166.5t170.5 72.5h912v-239h-912v-1071h912v-240z" />
<glyph unicode="D" horiz-adv-x="1374" d="M1282 240q0 -240 -238 -240h-952v1550h952q100 0 169 -70.5t69 -168.5v-1071zM1044 240v1071h-714v-1071h714z" />
<glyph unicode="E" horiz-adv-x="1181" d="M1063 0h-952v1550h952v-239h-713v-365h631v-239h-631v-467h713v-240z" />
<glyph unicode="F" horiz-adv-x="1181" d="M1063 1311h-713v-365h631v-239h-631v-707h-239v1550h952v-239z" />
<glyph unicode="G" horiz-adv-x="1411" d="M1292 0h-952q-190 0 -229 160q-8 37 -9 80v1071q0 94 68 166.5t170 72.5h913v-239h-913v-1071h715v467h-475v239h712v-946z" />
<glyph unicode="H" horiz-adv-x="1355" d="M1253 0h-237v707h-674v-707h-238v1550h238v-604h674v604h237v-1550z" />
<glyph unicode="I" horiz-adv-x="466" d="M348 0h-237v1550h237v-1550z" />
<glyph unicode="J" horiz-adv-x="1419" d="M1300 0h-950q-193 0 -231 164q-8 35 -8 76v241h239v-241h713v1310h237v-1550z" />
<glyph unicode="K" horiz-adv-x="1323" d="M1262 0h-316l-637 623v-623h-239v1550h239v-602l637 602h316l-824 -766z" />
<glyph unicode="L" horiz-adv-x="1101" d="M1028 0h-952v1550h239v-1310h713v-240z" />
<glyph unicode="M" horiz-adv-x="1658" d="M1540 0h-237v950l-349 -950h-256l-348 950v-950h-237v1550h217l495 -1310l498 1310h217v-1550z" />
<glyph unicode="N" horiz-adv-x="1419" d="M1303 0h-129l-824 1069v-1069h-237v1550h127l825 -1069v1069h238v-1550z" />
<glyph unicode="O" horiz-adv-x="1349" d="M1274 240q0 -240 -238 -240h-714q-190 0 -230 160q-8 37 -8 80v1071q0 94 67.5 166.5t170.5 72.5h714q100 0 169 -70.5t69 -168.5v-1071zM1036 240v1071h-714v-1071h714z" />
<glyph unicode="P" horiz-adv-x="1306" d="M1243 946q0 -240 -237 -239h-695v-707h-237v1550h932q98 0 167.5 -70.5t69.5 -168.5v-365zM1006 946v365h-695v-365h695z" />
<glyph unicode="Q" horiz-adv-x="1349" d="M1274 240q0 -240 -238 -240h-237v-240h-238v240h-239q-190 0 -230 160q-8 37 -8 80v1071q0 94 67.5 166.5t170.5 72.5h714q100 0 169 -70.5t69 -168.5v-1071zM1036 240v1071h-714v-1071h714z" />
<glyph unicode="R" horiz-adv-x="1337" d="M1268 0h-275l-620 707h-58v-707h-237v1550h911q100 0 169 -70.5t69 -168.5v-365q0 -240 -238 -239h-354zM989 946v365h-674v-365h674z" />
<glyph unicode="S" horiz-adv-x="1310" d="M1221 240q0 -102 -62 -168q-66 -72 -176 -72h-852v240h852v467h-633q-90 0 -151.5 47t-79.5 127q-8 31 -8 65v365q0 94 67.5 166.5t171.5 72.5h789v-239h-789v-365h633q102 0 170 -69.5t68 -169.5v-467z" />
<glyph unicode="T" horiz-adv-x="1333" d="M1257 1311h-477v-1311h-237v1311h-475v239h1189v-239z" />
<glyph unicode="U" horiz-adv-x="1419" d="M1300 240q0 -100 -63 -170t-174 -70h-713q-106 0 -172.5 68.5t-66.5 171.5v1310h239v-1310h713v1310h237v-1310z" />
<glyph unicode="V" horiz-adv-x="1310" d="M1255 1550l-475 -1550h-239l-475 1550h247l349 -1241l346 1241h247z" />
<glyph unicode="W" horiz-adv-x="2009" d="M1954 1550l-475 -1550h-238l-237 1008l-240 -1008h-238l-475 1550h248l346 -1241l268 1241h179l268 -1241l348 1241h246z" />
<glyph unicode="X" horiz-adv-x="1570" d="M1499 0h-285l-428 627l-428 -627h-286l571 784l-571 766h286l428 -606l428 606h285l-569 -766z" />
<glyph unicode="Y" horiz-adv-x="1347" d="M1268 1550l-475 -905v-645h-238v645l-477 905h248l348 -704l348 704h246z" />
<glyph unicode="Z" horiz-adv-x="1357" d="M1276 0h-1190v121l834 1190h-834v239h1190v-120l-836 -1190h836v-240z" />
<glyph unicode="[" horiz-adv-x="608" d="M551 0v-240h-477v1825h477v-239h-240v-1346h240z" />
<glyph unicode="\" horiz-adv-x="1054" d="M1020 0h-186l-799 1571h186z" />
<glyph unicode="]" horiz-adv-x="712" d="M594 -240h-475v240h237v1346h-237v239h475v-1825z" />
<glyph unicode="_" horiz-adv-x="1189" d="M1190 -399h-1190v241h1190v-241z" />
<glyph unicode="`" horiz-adv-x="1032" d="M760 1309h-168l-219 225h221z" />
<glyph unicode="a" horiz-adv-x="1415" d="M1298 0h-952q-102 0 -169.5 68.5t-67.5 171.5v241q0 100 64.5 170t172.5 70h715v242h-952v239h952q104 0 170.5 -68.5t66.5 -170.5v-963zM1061 240v241h-715v-241h715z" />
<glyph unicode="b" horiz-adv-x="1404" d="M1290 240q0 -102 -61 -168q-66 -72 -178 -72h-951v1548h238v-346h713q98 0 168.5 -68.5t70.5 -164.5v-729zM1051 240v723h-713v-723h713z" />
<glyph unicode="c" horiz-adv-x="1331" d="M1227 0h-912q-193 0 -229 160q-8 37 -8 80v723q0 94 66.5 166.5t170.5 72.5h912v-239h-912v-723h912v-240z" />
<glyph unicode="d" horiz-adv-x="1374" d="M1266 1548l-2 -1548h-932q-88 0 -149.5 47t-80.5 129q-8 31 -8 64v729q0 92 68.5 162.5t169.5 70.5h694l2 346h238zM1026 240v723h-694v-723h694z" />
<glyph unicode="e" horiz-adv-x="1415" d="M1298 721q0 -100 -61 -168q-68 -72 -176 -72h-715v-241h891v-240h-891q-104 0 -170.5 68.5t-66.5 171.5v723q0 104 61 171.5t176 67.5h715q104 0 170.5 -68.5t66.5 -170.5v-242zM1061 721v242h-715v-242h715z" />
<glyph unicode="f" horiz-adv-x="649" d="M614 1307h-215v-105h150v-239h-150v-963h-237v963h-105v239h105v105q0 102 63.5 171.5t173.5 69.5h215v-241z" />
<glyph unicode="g" horiz-adv-x="1423" d="M1307 -158q0 -242 -238 -241h-549v241h549v158h-715q-96 0 -166.5 68.5t-70.5 164.5v730q0 100 63.5 169.5t173.5 69.5h953v-1360zM1069 240v723h-715v-723h715z" />
<glyph unicode="h" horiz-adv-x="1415" d="M1298 0h-237v963h-715v-963h-237v1548h237v-346h715q190 0 229 -164q8 -35 8 -75v-963z" />
<glyph unicode="i" horiz-adv-x="454" d="M356 0h-237v1202h237v-1202z" />
<glyph unicode="j" horiz-adv-x="694" d="M578 -158q0 -100 -64 -168q-66 -74 -174 -73h-238v241h238v1360h238v-1360z" />
<glyph unicode="k" horiz-adv-x="1323" d="M1262 0h-357l-596 438v-438h-239v1202h239v-438l596 438h357l-865 -602z" />
<glyph unicode="l" horiz-adv-x="475" d="M356 0h-237v1548h237v-1548z" />
<glyph unicode="m" horiz-adv-x="1890" d="M1776 0h-240v963h-475v-963h-238v963h-477v-963h-237v1202h1427q193 0 231 -164q8 -35 9 -75v-963z" />
<glyph unicode="n" horiz-adv-x="1327" d="M1237 0h-238v963h-653v-963h-237v1202h890q193 0 232 -164q6 -35 6 -75v-963z" />
<glyph unicode="o" horiz-adv-x="1349" d="M1274 240q0 -240 -238 -240h-714q-190 0 -230 160q-8 37 -8 80v723q0 94 67.5 166.5t170.5 72.5h714q100 0 169 -70.5t69 -168.5v-723zM1036 240v723h-714v-723h714z" />
<glyph unicode="p" horiz-adv-x="1415" d="M1298 233q0 -92 -68.5 -162.5t-168.5 -70.5h-715v-399h-237v1601h952q88 0 149.5 -47t81.5 -129q6 -31 6 -63v-730zM1061 240v723h-715v-723h715z" />
<glyph unicode="q" horiz-adv-x="1423" d="M1307 -399h-238v399h-715q-96 0 -166.5 68.5t-70.5 164.5v730q0 100 63.5 169.5t173.5 69.5h953v-1601zM1069 240v723h-715v-723h715z" />
<glyph unicode="r" horiz-adv-x="1261" d="M1188 721h-240v242h-612v-963h-238v1202h850q193 0 232 -164q8 -35 8 -75v-242z" />
<glyph unicode="s" horiz-adv-x="1310" d="M1221 240q0 -102 -62 -168q-66 -72 -176 -72h-852v240h852v241h-633q-90 0 -151.5 47t-79.5 127q-8 31 -8 66v242q0 94 67.5 166.5t171.5 72.5h789v-239h-789v-242h633q102 0 170 -69.5t68 -170.5v-241z" />
<glyph unicode="t" horiz-adv-x="626" d="M545 0h-238q-104 0 -171.5 68.5t-67.5 171.5v1304h239v-342h238v-239h-238v-723h238v-240z" />
<glyph unicode="u" horiz-adv-x="1419" d="M1300 240q0 -100 -63 -170t-174 -70h-713q-106 0 -172.5 68.5t-66.5 171.5v962h239v-962h713v962h237v-962z" />
<glyph unicode="v" horiz-adv-x="1310" d="M1255 1202l-475 -1202h-239l-475 1202h247l349 -934l346 934h247z" />
<glyph unicode="w" horiz-adv-x="2009" d="M1954 1202l-475 -1202h-238l-237 721l-240 -721h-238l-475 1202h246l348 -954l268 954h179l268 -954l348 954h246z" />
<glyph unicode="x" horiz-adv-x="1570" d="M1499 0h-285l-428 442l-428 -442h-286l571 600l-571 602h286l428 -442l428 442h285l-569 -602z" />
<glyph unicode="y" horiz-adv-x="1296" d="M1243 1202l-655 -1683h-238l178 481l-475 1202h246l348 -954l348 954h248z" />
<glyph unicode="z" horiz-adv-x="1357" d="M1276 0h-1190v121l793 842h-793v239h1190v-121l-795 -841h795v-240z" />
<glyph unicode="|" horiz-adv-x="434" d="M317 -326h-206v1835h206v-1835z" />
<glyph unicode="&#xa1;" horiz-adv-x="563" d="M375 -80l-21 160l-39 321h-118l-39 -321l-21 -160v-708h238v708zM420 641q0 66 -46 116t-118 50q-68 0 -116 -49t-48 -115q0 -68 46 -117t118 -49q68 0 116 48t48 116z" />
<glyph unicode="&#xa3;" />
<glyph unicode="&#xa4;" />
<glyph unicode="&#xa7;" />
<glyph unicode="&#xa8;" horiz-adv-x="1177" d="M987 1427q0 -37 -30.5 -62.5t-75.5 -25.5q-41 0 -74 25t-33 66q0 37 32 63.5t75 26.5t74.5 -26t31.5 -67zM643 1427q0 -37 -31.5 -62.5t-74.5 -25.5q-41 0 -74 25t-33 66q0 39 32 64.5t75 25.5q41 0 73.5 -26t32.5 -67z" />
<glyph unicode="&#xaa;" />
<glyph unicode="&#xab;" />
<glyph unicode="&#xac;" />
<glyph unicode="&#xad;" horiz-adv-x="827" d="M778 707h-715v239h715v-239z" />
<glyph unicode="&#xaf;" />
<glyph unicode="&#xb1;" />
<glyph unicode="&#xb2;" />
<glyph unicode="&#xb3;" />
<glyph unicode="&#xb4;" horiz-adv-x="1032" d="M954 1534l-219 -225h-168l166 225h221z" />
<glyph unicode="&#xb5;" />
<glyph unicode="&#xb7;" />
<glyph unicode="&#x2219;" />
<glyph unicode="&#xb8;" horiz-adv-x="1042" d="M682 -170q0 -76 -63.5 -127t-149.5 -51q-41 0 -94 6v43q33 -4 47 -4q47 0 84 32.5t37 75.5q0 76 -84 76q-10 0 -21 -2l109 178h59l-49 -80q125 -28 125 -147z" />
<glyph unicode="&#xb9;" />
<glyph unicode="&#xba;" horiz-adv-x="1349" d="M1274 240q0 -240 -238 -240h-714q-190 0 -230 160q-8 37 -8 80v723q0 94 67.5 166.5t170.5 72.5h714q100 0 169 -70.5t69 -168.5v-723zM1036 240v723h-714v-723h714z" />
<glyph unicode="&#xbb;" />
<glyph unicode="&#xbc;" />
<glyph unicode="&#xbd;" />
<glyph unicode="&#xbe;" />
<glyph unicode="&#xbf;" horiz-adv-x="1146" d="M45 -307q0 100 63.5 174t174.5 74h268v409h237v-409q0 -100 -64.5 -170t-172.5 -70h-268v-242h684v-239h-684q-190 0 -232 170q-6 33 -6 69v234zM535 649q0 66 47 116t116 50q68 0 116 -49t48 -115q0 -68 -46 -117t-118 -49q-68 0 -115.5 48t-47.5 116z" />
<glyph unicode="&#xc0;" horiz-adv-x="1492" d="M1270 0h-238v707h-715v-707h-237v1311q0 100 64.5 169.5t172.5 69.5h715q86 0 162 -76.5t76 -162.5v-1311zM1032 946v365h-715v-365h715zM780 1575h-168l-219 225h221z" />
<glyph unicode="&#xc1;" horiz-adv-x="1492" d="M1270 0h-238v707h-715v-707h-237v1311q0 100 64.5 169.5t172.5 69.5h715q86 0 162 -76.5t76 -162.5v-1311zM1032 946v365h-715v-365h715zM934 1800l-219 -225h-168l166 225h221z" />
<glyph unicode="&#xc2;" horiz-adv-x="1492" d="M1270 0h-238v707h-715v-707h-237v1311q0 100 64.5 169.5t172.5 69.5h715q86 0 162 -76.5t76 -162.5v-1311zM1032 946v365h-715v-365h715zM961 1585h-170l-111 133l-107 -133h-170l148 209h262z" />
<glyph unicode="&#xc3;" horiz-adv-x="1492" d="M1270 0h-238v707h-715v-707h-237v1311q0 100 64.5 169.5t172.5 69.5h715q86 0 162 -76.5t76 -162.5v-1311zM1032 946v365h-715v-365h715zM981 1800q0 -84 -43 -141q-51 -63 -141 -64q-68 0 -172.5 55.5t-141.5 55.5q-45 0 -65 -37q-12 -18 -25 -72h-31q6 203 183 203 q68 0 170 -54t143 -54q72 0 92 108h31z" />
<glyph unicode="&#xc4;" horiz-adv-x="1492" d="M1270 0h-238v707h-715v-707h-237v1311q0 100 64.5 169.5t172.5 69.5h715q86 0 162 -76.5t76 -162.5v-1311zM1032 946v365h-715v-365h715zM967 1694q0 -37 -31 -62.5t-74 -25.5t-75.5 24.5t-32.5 65.5q0 37 31.5 63.5t76.5 26.5q41 0 73 -25.5t32 -66.5zM623 1694 q0 -37 -31 -62.5t-76 -25.5q-41 0 -73.5 24.5t-32.5 65.5q0 39 31.5 64.5t74.5 25.5q41 0 74 -25.5t33 -66.5z" />
<glyph unicode="&#xc5;" horiz-adv-x="1492" d="M1270 0h-238v707h-715v-707h-237v1311q0 100 64.5 169.5t172.5 69.5h715q86 0 162 -76.5t76 -162.5v-1311zM1032 946v365h-715v-365h715zM879 1688q0 -74 -55.5 -126.5t-135.5 -52.5q-76 0 -132 51.5t-56 127.5q0 72 54 124t134 52q78 0 134.5 -51t56.5 -125zM688 1800 q-51 0 -86 -33.5t-35 -78.5q0 -49 36 -81t85 -32q51 0 86 33.5t35 79.5q0 47 -36 79.5t-85 32.5z" />
<glyph unicode="&#xc6;" horiz-adv-x="1517" d="M1452 0h-752v829h-409v-829h-240v1311q0 100 64.5 169.5t175.5 69.5h1161v-239h-512v-242h512v-240h-512v-589h512v-240zM700 1069v242h-409v-242h409z" />
<glyph unicode="&#xc7;" horiz-adv-x="1290" d="M1221 0h-912q-193 0 -229 160q-8 37 -8 80v1071q0 94 66.5 166.5t170.5 72.5h912v-239h-912v-1071h912v-240zM844 -170q0 -76 -63.5 -127t-149.5 -51q-39 0 -94 6v43q33 -4 49 -4q47 0 83 32.5t36 75.5q0 76 -84 76q-10 0 -21 -2l111 178h59l-51 -80q125 -28 125 -147z " />
<glyph unicode="&#xc8;" horiz-adv-x="1300" d="M1063 0h-952v1550h952v-239h-713v-365h631v-239h-631v-467h713v-240zM760 1575h-168l-219 225h221z" />
<glyph unicode="&#xc9;" horiz-adv-x="1300" d="M1063 0h-952v1550h952v-239h-713v-365h631v-239h-631v-467h713v-240zM872 1800l-219 -225h-166l166 225h219z" />
<glyph unicode="&#xca;" horiz-adv-x="1300" d="M1063 0h-952v1550h952v-239h-713v-365h631v-239h-631v-467h713v-240zM899 1585h-170l-111 133l-106 -133h-170l147 209h263z" />
<glyph unicode="&#xcb;" horiz-adv-x="1300" d="M1063 0h-952v1550h952v-239h-713v-365h631v-239h-631v-467h713v-240zM907 1694q0 -37 -31.5 -62.5t-74.5 -25.5q-41 0 -74 24.5t-33 65.5q0 37 32 63.5t75 26.5q41 0 73.5 -25.5t32.5 -66.5zM561 1694q0 -37 -30.5 -62.5t-73.5 -25.5t-75 24.5t-32 65.5q0 39 31 64.5 t74 25.5t74.5 -25.5t31.5 -66.5z" />
<glyph unicode="&#xcc;" horiz-adv-x="514" d="M348 0h-237v1550h237v-1550zM334 1575h-168l-219 225h221z" />
<glyph unicode="&#xcd;" horiz-adv-x="514" d="M348 0h-237v1550h237v-1550zM528 1800l-219 -225h-168l166 225h221z" />
<glyph unicode="&#xce;" horiz-adv-x="514" d="M348 0h-237v1550h237v-1550zM514 1585h-170l-111 133l-106 -133h-170l147 209h263z" />
<glyph unicode="&#xcf;" horiz-adv-x="514" d="M348 0h-237v1550h237v-1550zM520 1694q0 -37 -30.5 -62.5t-73.5 -25.5t-75 24.5t-32 65.5q0 37 32 63.5t75 26.5q41 0 72.5 -25.5t31.5 -66.5zM176 1694q0 -37 -30.5 -62.5t-73.5 -25.5t-75 24.5t-32 65.5q0 39 31 64.5t74 25.5q41 0 73.5 -25.5t32.5 -66.5z" />
<glyph unicode="&#xd1;" horiz-adv-x="1562" d="M1303 0h-129l-824 1069v-1069h-237v1550h127l823 -1069v1069h240v-1550zM961 1800q0 -84 -43 -141q-49 -63 -142 -64q-68 0 -172 55.5t-141 55.5q-45 0 -66 -37q-12 -18 -24 -72h-31q6 203 182 203q68 0 170.5 -54t143.5 -54q72 0 92 108h31z" />
<glyph unicode="&#xd2;" horiz-adv-x="1484" d="M1274 240q0 -240 -238 -240h-714q-190 0 -230 160q-8 37 -8 80v1071q0 94 67.5 166.5t170.5 72.5h714q100 0 169 -70.5t69 -168.5v-1071zM1036 240v1071h-714v-1071h714zM760 1575h-168l-219 225h221z" />
<glyph unicode="&#xd3;" horiz-adv-x="1484" d="M1274 240q0 -240 -238 -240h-714q-190 0 -230 160q-8 37 -8 80v1071q0 94 67.5 166.5t170.5 72.5h714q100 0 169 -70.5t69 -168.5v-1071zM1036 240v1071h-714v-1071h714zM954 1800l-221 -225h-166l166 225h221z" />
<glyph unicode="&#xd4;" horiz-adv-x="1484" d="M1274 240q0 -240 -238 -240h-714q-190 0 -230 160q-8 37 -8 80v1071q0 94 67.5 166.5t170.5 72.5h714q100 0 169 -70.5t69 -168.5v-1071zM1036 240v1071h-714v-1071h714zM961 1585h-170l-111 133l-107 -133h-170l148 209h262z" />
<glyph unicode="&#xd5;" horiz-adv-x="1484" d="M1274 240q0 -240 -238 -240h-714q-190 0 -230 160q-8 37 -8 80v1071q0 94 67.5 166.5t170.5 72.5h714q100 0 169 -70.5t69 -168.5v-1071zM1036 240v1071h-714v-1071h714zM1001 1800q0 -84 -43 -141q-51 -63 -141 -64q-68 0 -172 55.5t-141 55.5q-45 0 -66 -37 q-12 -18 -24 -72h-31q4 203 182 203q66 0 169.5 -54t144.5 -54q72 0 92 108h30z" />
<glyph unicode="&#xd6;" horiz-adv-x="1484" d="M1274 240q0 -240 -238 -240h-714q-190 0 -230 160q-8 37 -8 80v1071q0 94 67.5 166.5t170.5 72.5h714q100 0 169 -70.5t69 -168.5v-1071zM1036 240v1071h-714v-1071h714zM967 1694q0 -37 -31 -62.5t-76 -25.5q-41 0 -73.5 24.5t-32.5 65.5q0 37 31.5 63.5t74.5 26.5 t75 -25.5t32 -66.5zM623 1694q0 -37 -32 -62.5t-75 -25.5q-41 0 -73.5 24.5t-32.5 65.5q0 39 31.5 64.5t74.5 25.5q41 0 74 -25.5t33 -66.5z" />
<glyph unicode="&#xd8;" horiz-adv-x="1484" d="M1300 240q0 -240 -239 -240h-713q-193 0 -229 160q-8 37 -8 80v1071q0 94 66.5 166.5t170.5 72.5h713q100 0 169.5 -70.5t69.5 -168.5v-1071zM1061 240v1071h-713v-1071h713zM1139 1391l-688 -1207h-164l688 1207h164z" />
<glyph unicode="&#xd9;" horiz-adv-x="1560" d="M1300 240q0 -100 -63 -170t-174 -70h-713q-106 0 -172.5 68.5t-66.5 171.5v1310h239v-1310h713v1310h237v-1310zM840 1575h-166l-219 225h219z" />
<glyph unicode="&#xda;" horiz-adv-x="1560" d="M1300 240q0 -100 -63 -170t-174 -70h-713q-106 0 -172.5 68.5t-66.5 171.5v1310h239v-1310h713v1310h237v-1310zM954 1800l-221 -225h-166l166 225h221z" />
<glyph unicode="&#xdb;" horiz-adv-x="1560" d="M1300 240q0 -100 -63 -170t-174 -70h-713q-106 0 -172.5 68.5t-66.5 171.5v1310h239v-1310h713v1310h237v-1310zM981 1585h-170l-111 133l-106 -133h-170l147 209h263z" />
<glyph unicode="&#xdc;" horiz-adv-x="1560" d="M1300 240q0 -100 -63 -170t-174 -70h-713q-106 0 -172.5 68.5t-66.5 171.5v1310h239v-1310h713v1310h237v-1310zM987 1694q0 -37 -30.5 -62.5t-75.5 -25.5q-41 0 -74 24.5t-33 65.5q0 37 32 63.5t75 26.5t74.5 -25.5t31.5 -66.5zM643 1694q0 -37 -31.5 -62.5t-74.5 -25.5 q-41 0 -74 24.5t-33 65.5q0 39 32 64.5t75 25.5q41 0 73.5 -25.5t32.5 -66.5z" />
<glyph unicode="&#xdd;" horiz-adv-x="1222" />
<glyph unicode="&#xde;" />
<glyph unicode="&#xdf;" horiz-adv-x="1300" d="M1282 240q0 -240 -238 -240h-485v240h485v467h-485v239h485v365h-714v-1311h-238v1311q0 92 67.5 165.5t170.5 73.5h714q84 0 148.5 -52t83.5 -132q6 -29 6 -358q0 -127 -115 -191q115 -66 115 -172v-405z" />
<glyph unicode="&#xe0;" horiz-adv-x="1556" d="M1298 0h-952q-102 0 -169.5 68.5t-67.5 171.5v241q0 100 64.5 170t172.5 70h715v242h-952v239h952q104 0 170.5 -68.5t66.5 -170.5v-963zM1061 240v241h-715v-241h715zM801 1309h-168l-219 225h221z" />
<glyph unicode="&#xe1;" horiz-adv-x="1556" d="M1298 0h-952q-102 0 -169.5 68.5t-67.5 171.5v241q0 100 64.5 170t172.5 70h715v242h-952v239h952q104 0 170.5 -68.5t66.5 -170.5v-963zM1061 240v241h-715v-241h715zM954 1534l-219 -225h-168l166 225h221z" />
<glyph unicode="&#xe2;" horiz-adv-x="1556" d="M1298 0h-952q-102 0 -169.5 68.5t-67.5 171.5v241q0 100 64.5 170t172.5 70h715v242h-952v239h952q104 0 170.5 -68.5t66.5 -170.5v-963zM1061 240v241h-715v-241h715zM961 1319h-170l-111 133l-107 -133h-170l148 209h262z" />
<glyph unicode="&#xe3;" horiz-adv-x="1556" d="M1298 0h-952q-102 0 -169.5 68.5t-67.5 171.5v241q0 100 64.5 170t172.5 70h715v242h-952v239h952q104 0 170.5 -68.5t66.5 -170.5v-963zM1061 240v241h-715v-241h715zM981 1534q0 -84 -43 -141q-51 -63 -141 -64q-68 0 -172.5 55.5t-141.5 55.5q-45 0 -65 -37 q-12 -18 -25 -72h-31q6 203 183 203q68 0 170 -54.5t143 -54.5q72 0 92 109h31z" />
<glyph unicode="&#xe4;" horiz-adv-x="1556" d="M1298 0h-952q-102 0 -169.5 68.5t-67.5 171.5v241q0 100 64.5 170t172.5 70h715v242h-952v239h952q104 0 170.5 -68.5t66.5 -170.5v-963zM1061 240v241h-715v-241h715zM987 1427q0 -37 -30.5 -62.5t-75.5 -25.5q-41 0 -74 25t-33 66q0 37 32 63.5t75 26.5t74.5 -26 t31.5 -67zM643 1427q0 -37 -31.5 -62.5t-74.5 -25.5q-41 0 -74 25t-33 66q0 39 32 64.5t75 25.5q41 0 73.5 -26t32.5 -67z" />
<glyph unicode="&#xe5;" horiz-adv-x="1556" d="M1298 0h-952q-102 0 -169.5 68.5t-67.5 171.5v241q0 100 64.5 170t172.5 70h715v242h-952v239h952q104 0 170.5 -68.5t66.5 -170.5v-963zM1061 240v241h-715v-241h715zM899 1421q0 -74 -55.5 -126t-134.5 -52q-76 0 -132.5 51.5t-56.5 126.5q0 72 54.5 124t134.5 52 q78 0 134 -51t56 -125zM709 1534q-51 0 -86 -34t-35 -79q0 -49 35.5 -80.5t85.5 -31.5q51 0 85.5 33.5t34.5 78.5q0 47 -35.5 80t-84.5 33z" />
<glyph unicode="&#xe6;" horiz-adv-x="2353" d="M1298 0h-952q-102 0 -169.5 68.5t-67.5 171.5v241q0 100 64.5 170t172.5 70h715v242h-952v239h952q104 0 170.5 -68.5t66.5 -170.5v-963zM1061 240v241h-715v-241h715zM2251 721q0 -100 -62 -168q-68 -72 -176 -72h-713v-241h891v-240h-891q-104 0 -171.5 68.5 t-67.5 171.5v723q0 104 62.5 171.5t176.5 67.5h713q104 0 171 -68.5t67 -170.5v-242zM2013 721v242h-713v-242h713z" />
<glyph unicode="&#xe7;" horiz-adv-x="1284" d="M1245 0h-911q-193 0 -230 160q-8 37 -8 80v723q0 94 66.5 166.5t171.5 72.5h911v-239h-911v-723h911v-240zM844 -170q0 -76 -63.5 -127t-149.5 -51q-39 0 -94 6v43q33 -4 49 -4q47 0 83 32.5t36 75.5q0 76 -84 76q-10 0 -21 -2l111 178h59l-51 -80q125 -28 125 -147z" />
<glyph unicode="&#xe8;" horiz-adv-x="1556" d="M1298 721q0 -100 -61 -168q-68 -72 -176 -72h-715v-241h891v-240h-891q-104 0 -170.5 68.5t-66.5 171.5v723q0 104 61 171.5t176 67.5h715q104 0 170.5 -68.5t66.5 -170.5v-242zM1061 721v242h-715v-242h715zM760 1309h-168l-219 225h221z" />
<glyph unicode="&#xe9;" horiz-adv-x="1556" d="M1298 721q0 -100 -61 -168q-68 -72 -176 -72h-715v-241h891v-240h-891q-104 0 -170.5 68.5t-66.5 171.5v723q0 104 61 171.5t176 67.5h715q104 0 170.5 -68.5t66.5 -170.5v-242zM1061 721v242h-715v-242h715zM995 1534l-221 -225h-166l166 225h221z" />
<glyph unicode="&#xea;" horiz-adv-x="1556" d="M1298 721q0 -100 -61 -168q-68 -72 -176 -72h-715v-241h891v-240h-891q-104 0 -170.5 68.5t-66.5 171.5v723q0 104 61 171.5t176 67.5h715q104 0 170.5 -68.5t66.5 -170.5v-242zM1061 721v242h-715v-242h715zM961 1319h-170l-111 133l-107 -133h-170l148 209h262z" />
<glyph unicode="&#xeb;" horiz-adv-x="1556" d="M1298 721q0 -100 -61 -168q-68 -72 -176 -72h-715v-241h891v-240h-891q-104 0 -170.5 68.5t-66.5 171.5v723q0 104 61 171.5t176 67.5h715q104 0 170.5 -68.5t66.5 -170.5v-242zM1061 721v242h-715v-242h715zM967 1427q0 -37 -31 -62.5t-74 -25.5t-75.5 25t-32.5 66 q0 37 31.5 63.5t76.5 26.5q41 0 73 -26t32 -67zM623 1427q0 -37 -31 -62.5t-76 -25.5q-41 0 -73.5 25t-32.5 66q0 39 31.5 64.5t74.5 25.5q41 0 74 -26t33 -67z" />
<glyph unicode="&#xec;" horiz-adv-x="454" d="M356 0h-237v1202h237v-1202zM330 1309h-168l-219 225h221z" />
<glyph unicode="&#xed;" horiz-adv-x="454" d="M356 0h-237v1202h237v-1202zM524 1534l-221 -225h-166l166 225h221z" />
<glyph unicode="&#xee;" horiz-adv-x="454" d="M356 0h-237v1202h237v-1202zM510 1319h-170l-111 133l-106 -133h-170l147 209h262z" />
<glyph unicode="&#xef;" horiz-adv-x="454" d="M356 0h-237v1202h237v-1202zM516 1427q0 -37 -30.5 -62.5t-73.5 -25.5t-76 25t-33 66q0 37 32 63.5t77 26.5q41 0 72.5 -26t31.5 -67zM172 1427q0 -37 -30.5 -62.5t-75.5 -25.5q-41 0 -74 25t-33 66q0 39 32 64.5t75 25.5q41 0 73.5 -26t32.5 -67z" />
<glyph unicode="&#xf0;" />
<glyph unicode="&#xf1;" horiz-adv-x="1460" d="M1237 0h-238v963h-653v-963h-237v1202h890q193 0 230 -164q8 -35 8 -75v-963zM981 1534q0 -84 -43 -141q-51 -63 -141 -64q-68 0 -172.5 55.5t-141.5 55.5q-45 0 -65 -37q-12 -18 -25 -72h-31q6 203 183 203q68 0 170 -54.5t143 -54.5q72 0 92 109h31z" />
<glyph unicode="&#xf2;" horiz-adv-x="1556" d="M801 1309h-168l-219 225h221zM1274 240q0 -240 -238 -240h-714q-190 0 -230 160q-8 37 -8 80v723q0 94 67.5 166.5t170.5 72.5h714q100 0 169 -70.5t69 -168.5v-723zM1036 240v723h-714v-723h714z" />
<glyph unicode="&#xf3;" horiz-adv-x="1556" d="M954 1534l-219 -225h-168l166 225h221zM1274 240q0 -240 -238 -240h-714q-190 0 -230 160q-8 37 -8 80v723q0 94 67.5 166.5t170.5 72.5h714q100 0 169 -70.5t69 -168.5v-723zM1036 240v723h-714v-723h714z" />
<glyph unicode="&#xf4;" horiz-adv-x="1556" d="M961 1319h-170l-111 133l-107 -133h-170l148 209h262zM1274 240q0 -240 -238 -240h-714q-190 0 -230 160q-8 37 -8 80v723q0 94 67.5 166.5t170.5 72.5h714q100 0 169 -70.5t69 -168.5v-723zM1036 240v723h-714v-723h714z" />
<glyph unicode="&#xf5;" horiz-adv-x="1556" d="M981 1534q0 -84 -43 -141q-51 -63 -141 -64q-68 0 -172.5 55.5t-141.5 55.5q-45 0 -65 -37q-12 -18 -25 -72h-31q6 203 183 203q68 0 170 -54.5t143 -54.5q72 0 92 109h31zM1274 240q0 -240 -238 -240h-714q-190 0 -230 160q-8 37 -8 80v723q0 94 67.5 166.5t170.5 72.5 h714q100 0 169 -70.5t69 -168.5v-723zM1036 240v723h-714v-723h714z" />
<glyph unicode="&#xf6;" horiz-adv-x="1556" d="M987 1427q0 -37 -30.5 -62.5t-75.5 -25.5q-41 0 -74 25t-33 66q0 37 32 63.5t75 26.5t74.5 -26t31.5 -67zM643 1427q0 -37 -31.5 -62.5t-74.5 -25.5q-41 0 -74 25t-33 66q0 39 32 64.5t75 25.5q41 0 73.5 -26t32.5 -67zM1274 240q0 -240 -238 -240h-714q-190 0 -230 160 q-8 37 -8 80v723q0 94 67.5 166.5t170.5 72.5h714q100 0 169 -70.5t69 -168.5v-723zM1036 240v723h-714v-723h714z" />
<glyph unicode="&#xf8;" horiz-adv-x="1349" d="M1274 240q0 -240 -238 -240h-714q-190 0 -230 160q-8 37 -8 80v723q0 94 67.5 166.5t170.5 72.5h714q100 0 169 -70.5t69 -168.5v-723zM1036 240v723h-714v-723h714zM1139 965l-822 -852l-81 118l784 828z" />
<glyph unicode="&#xf9;" horiz-adv-x="1556" d="M801 1309h-168l-219 225h221zM1300 240q0 -100 -63 -170t-174 -70h-713q-106 0 -172.5 68.5t-66.5 171.5v962h239v-962h713v962h237v-962z" />
<glyph unicode="&#xfa;" horiz-adv-x="1556" d="M954 1534l-219 -225h-168l166 225h221zM1300 240q0 -100 -63 -170t-174 -70h-713q-106 0 -172.5 68.5t-66.5 171.5v962h239v-962h713v962h237v-962z" />
<glyph unicode="&#xfb;" horiz-adv-x="1556" d="M961 1319h-170l-111 133l-107 -133h-170l148 209h262zM1300 240q0 -100 -63 -170t-174 -70h-713q-106 0 -172.5 68.5t-66.5 171.5v962h239v-962h713v962h237v-962z" />
<glyph unicode="&#xfc;" horiz-adv-x="1556" d="M987 1427q0 -37 -30.5 -62.5t-75.5 -25.5q-41 0 -74 25t-33 66q0 37 32 63.5t75 26.5t74.5 -26t31.5 -67zM643 1427q0 -37 -31.5 -62.5t-74.5 -25.5q-41 0 -74 25t-33 66q0 39 32 64.5t75 25.5q41 0 73.5 -26t32.5 -67zM1300 240q0 -100 -63 -170t-174 -70h-713 q-106 0 -172.5 68.5t-66.5 171.5v962h239v-962h713v962h237v-962z" />
<glyph unicode="&#xfd;" horiz-adv-x="1296" d="M950 1550l-219 -225h-168l166 225h221zM1243 1202l-655 -1683h-238l178 481l-475 1202h246l348 -954l348 954h248z" />
<glyph unicode="&#xfe;" />
<glyph unicode="&#xff;" horiz-adv-x="1427" />
<glyph unicode="&#x152;" horiz-adv-x="2304" d="M2224 1069q0 -100 -61 -168q-68 -72 -176 -72h-715v-589h891v-240h-891q-61 0 -115 27q-53 -27 -131 -27h-713q-193 0 -229 160q-8 37 -8 80v1071q0 94 66.5 166.5t170.5 72.5h713q63 0 117 -30q55 31 129 30h715q104 0 170.5 -68.5t66.5 -170.5v-242zM1987 1069v242 h-715v-242h715zM1026 240v1071h-713v-1071h713z" />
<glyph unicode="&#x153;" horiz-adv-x="2304" d="M2224 721q0 -100 -61 -168q-68 -72 -176 -72h-715v-241h893v-240h-893q-61 0 -115 27q-53 -27 -131 -27h-713q-193 0 -229 160q-8 37 -8 80v723q0 94 66.5 166.5t170.5 72.5h713q63 0 119 -31q53 31 127 31h715q104 0 170.5 -68.5t66.5 -170.5v-242zM1987 721v242h-715 v-242h715zM1026 240v723h-713v-723h713z" />
<glyph unicode="&#x178;" horiz-adv-x="1480" />
<glyph unicode="&#x2c6;" horiz-adv-x="1193" d="M940 1319h-170l-111 133l-106 -133h-170l147 209h263z" />
<glyph unicode="&#x2dc;" horiz-adv-x="1128" d="M961 1534q0 -84 -43 -141q-49 -63 -142 -64q-66 0 -171 55.5t-142 55.5q-45 0 -66 -37q-12 -18 -24 -72h-31q6 203 182 203q68 0 170.5 -54.5t145.5 -54.5q70 0 90 109h31z" />
<glyph unicode="&#x2000;" horiz-adv-x="931" />
<glyph unicode="&#x2001;" horiz-adv-x="1863" />
<glyph unicode="&#x2002;" horiz-adv-x="931" />
<glyph unicode="&#x2003;" horiz-adv-x="1863" />
<glyph unicode="&#x2004;" horiz-adv-x="620" />
<glyph unicode="&#x2005;" horiz-adv-x="464" />
<glyph unicode="&#x2006;" horiz-adv-x="309" />
<glyph unicode="&#x2007;" horiz-adv-x="309" />
<glyph unicode="&#x2008;" horiz-adv-x="231" />
<glyph unicode="&#x2009;" horiz-adv-x="372" />
<glyph unicode="&#x200a;" horiz-adv-x="102" />
<glyph unicode="&#x2010;" horiz-adv-x="827" d="M778 707h-715v239h715v-239z" />
<glyph unicode="&#x2011;" horiz-adv-x="827" d="M778 707h-715v239h715v-239z" />
<glyph unicode="&#x2012;" horiz-adv-x="827" d="M778 707h-715v239h715v-239z" />
<glyph unicode="&#x2013;" horiz-adv-x="774" d="M502 705h-439v237h439v-237z" />
<glyph unicode="&#x2014;" horiz-adv-x="1200" d="M778 707h-715v239h715v-239z" />
<glyph unicode="&#x2018;" horiz-adv-x="407" d="M31 1446q0 -115 82 -193q59 -55 192 -110l37 47q-90 47 -104 113h16q80 0 104 104q6 20 7 41q0 68 -48.5 118t-123.5 50q-127 0 -156 -119q-6 -22 -6 -51z" />
<glyph unicode="&#x2019;" horiz-adv-x="419" d="M369 1446q0 -115 -80 -193q-59 -55 -193 -110l-37 47q90 47 105 113h-17q-80 0 -106 104q-4 20 -4 41q0 68 48 118t124 50q127 0 156 -119q4 -22 4 -51z" />
<glyph unicode="&#x201a;" />
<glyph unicode="&#x201c;" horiz-adv-x="761" d="M31 1446q0 -115 82 -193q59 -55 192 -110l37 47q-90 47 -104 113h16q80 0 104 104q6 20 7 41q0 68 -48.5 118t-123.5 50q-127 0 -156 -119q-6 -22 -6 -51zM397 1446q0 -115 80 -193q59 -55 193 -110l37 47q-88 47 -105 113h16q82 0 107 104q4 20 4 41q0 68 -48 118 t-124 50q-127 0 -156 -119q-4 -22 -4 -51z" />
<glyph unicode="&#x201d;" horiz-adv-x="772" d="M369 1446q0 -115 -80 -193q-59 -55 -193 -110l-37 47q90 47 105 113h-17q-80 0 -106 104q-4 20 -4 41q0 68 48 118t124 50q127 0 156 -119q4 -22 4 -51zM735 1446q0 -115 -82 -193q-59 -55 -192 -110l-37 47q90 47 104 113h-16q-80 0 -104 104q-6 20 -7 41q0 68 49.5 118 t122.5 50q127 0 156 -119q6 -22 6 -51z" />
<glyph unicode="&#x201e;" />
<glyph unicode="&#x2022;" horiz-adv-x="970" d="M926 250h-899v940h899v-940z" />
<glyph unicode="&#x2026;" horiz-adv-x="1062" d="M383 121q0 -66 -47 -116t-117 -50q-68 0 -116 49t-48 115q0 68 46 117t118 49q68 0 116 -48t48 -116zM719 121q0 -66 -46 -116t-118 -50q-68 0 -116 49t-48 115q0 68 47 117t117 49q68 0 116 -48t48 -116zM1055 121q0 -66 -46 -116t-118 -50q-68 0 -115 49t-47 115 q0 68 46 117t116 49q68 0 116 -48t48 -116z" />
<glyph unicode="&#x202f;" horiz-adv-x="372" />
<glyph unicode="&#x2039;" horiz-adv-x="817" d="M741 477l-168 -170l-503 510l503 510l168 -170l-335 -340z" />
<glyph unicode="&#x203a;" horiz-adv-x="827" d="M743 817l-503 -510l-168 170l336 340l-336 340l168 170z" />
<glyph unicode="&#x205f;" horiz-adv-x="464" />
<glyph unicode="&#x2122;" horiz-adv-x="2992" d="M2873 0h-237v950l-349 -950h-256l-348 950v-950h-237v1550h217l495 -1310l498 1310h217v-1550zM1257 1311h-477v-1311h-237v1311h-475v239h1189v-239z" />
<glyph unicode="&#xe000;" horiz-adv-x="1200" d="M0 1200h1200v-1200h-1200v1200z" />
<glyph unicode="&#xfb01;" horiz-adv-x="1103" d="M1005 0h-237v1202h237v-1202zM614 1307h-215v-105h150v-239h-150v-963h-237v963h-105v239h105v105q0 102 63.5 171.5t173.5 69.5h215v-241z" />
<glyph unicode="&#xfb02;" horiz-adv-x="1124" d="M1005 0h-237v1548h237v-1548zM614 1307h-215v-105h150v-239h-150v-963h-237v963h-105v239h105v105q0 102 63.5 171.5t173.5 69.5h215v-241z" />
<glyph unicode="&#xfb03;" horiz-adv-x="1753" d="M1654 0h-237v1202h237v-1202zM1263 1307h-215v-105h150v-239h-150v-963h-237v963h-105v239h105v105q0 102 63.5 171.5t173.5 69.5h215v-241zM614 1307h-215v-105h150v-239h-150v-963h-237v963h-105v239h105v105q0 102 63.5 171.5t173.5 69.5h215v-241z" />
<glyph unicode="&#xfb04;" horiz-adv-x="1773" d="M1654 0h-237v1548h237v-1548zM1263 1307h-215v-105h150v-239h-150v-963h-237v963h-105v239h105v105q0 102 63.5 171.5t173.5 69.5h215v-241zM614 1307h-215v-105h150v-239h-150v-963h-237v963h-105v239h105v105q0 102 63.5 171.5t173.5 69.5h215v-241z" />
</font>
</defs>
</svg>
